<svg width="444" height="397" viewBox="0 0 444 397" fill="none" xmlns="http://www.w3.org/2000/svg">
<g opacity="0.5" clip-path="url(#clip0_5897_7141)">
<path d="M365.633 330.497H54.4495C50.2765 330.497 46.8984 327.135 46.8984 322.981V115.089C46.8984 110.935 50.2765 107.572 54.4495 107.572H365.633C369.806 107.572 373.184 110.935 373.184 115.089V322.882C373.284 327.135 369.806 330.497 365.633 330.497Z" fill="#00D1FF"/>
<path d="M354.607 322.979H65.4808C61.3078 322.979 57.9297 319.616 57.9297 315.462V122.702C57.9297 118.548 61.3078 115.186 65.4808 115.186H354.607C358.78 115.186 362.158 118.548 362.158 122.702V315.462C362.258 319.517 358.78 322.979 354.607 322.979Z" fill="#2542BA"/>
<mask id="mask0_5897_7141" style="mask-type:alpha" maskUnits="userSpaceOnUse" x="75" y="133" width="278" height="180">
<rect x="75.25" y="133.953" width="277.705" height="179.038" fill="url(#paint0_linear_5897_7141)"/>
</mask>
<g mask="url(#mask0_5897_7141)">
<g style="mix-blend-mode:luminosity">
<path d="M145.359 136.154H105.418V140.605H145.359V136.154Z" fill="#FDFEFE"/>
<path d="M130.853 146.047H105.418V150.497H130.853V146.047Z" fill="#FDFEFE"/>
<path d="M247.592 146.047H145.156V150.497H247.592V146.047Z" fill="#FDFEFE"/>
<path d="M311.18 146.047H257.527V150.497H311.18V146.047Z" fill="#FC6454"/>
<path d="M180.032 155.936H115.352V160.386H180.032V155.936Z" fill="#58D05B"/>
<path d="M296.282 155.936H199.906V160.386H296.282V155.936Z" fill="#FDFEFE"/>
<path d="M196.428 165.826H105.418V170.277H196.428V165.826Z" fill="#FC6454"/>
<path d="M269.458 165.826H204.777V170.277H269.458V165.826Z" fill="#78D5E4"/>
<path d="M180.032 175.717H115.352V180.167H180.032V175.717Z" fill="#FDFEFE"/>
<path d="M199.906 185.605H105.418V190.056H199.906V185.605Z" fill="#FDFEFE"/>
<path d="M170.099 195.496H105.418V199.947H170.099V195.496Z" fill="#FDFEFE"/>
<path d="M233.186 205.385H125.285V209.835H233.186V205.385Z" fill="#FC6454"/>
<path d="M279.39 205.385H244.516V209.835H279.39V205.385Z" fill="#FDFEFE"/>
<path d="M329.065 205.385H294.191V209.835H329.065V205.385Z" fill="#FDFEFE"/>
<path d="M179.241 215.277H135.227V219.728H179.241V215.277Z" fill="#FDFEFE"/>
<path d="M193.946 225.168H135.227V229.619H193.946V225.168Z" fill="#FC6454"/>
<path d="M279.388 225.168H214.707V229.619H279.388V225.168Z" fill="#FDFEFE"/>
<path d="M321.117 225.168H294.191V229.619H321.117V225.168Z" fill="#FC6454"/>
<path d="M145.16 235.057H105.418V239.507H145.16V235.057Z" fill="#FDFEFE"/>
<path d="M170.099 244.947H105.418V249.398H170.099V244.947Z" fill="#FDFEFE"/>
<path d="M252.566 254.838H135.227V259.288H252.566V254.838Z" fill="#FDFEFE"/>
<path d="M337.016 254.838H264.387V259.288H337.016V254.838Z" fill="#78D5E4"/>
<path d="M175.068 264.729H135.227V269.179H175.068V264.729Z" fill="#FDFEFE"/>
<path d="M224.744 264.729H184.902V269.179H224.744V264.729Z" fill="#58D05B"/>
<path d="M274.416 264.729H234.574V269.179H274.416V264.729Z" fill="#FDFEFE"/>
<path d="M170.099 274.617H105.418V279.068H170.099V274.617Z" fill="#FDFEFE"/>
<path d="M189.966 284.51H125.285V288.96H189.966V284.51Z" fill="#58D05B"/>
<path d="M266.97 284.51H202.289V288.96H266.97V284.51Z" fill="#58D05B"/>
<path d="M237.163 304.289H200.898V308.74H237.163V304.289Z" fill="#FDFEFE"/>
<path d="M221.263 294.398H125.285V298.849H221.263V294.398Z" fill="#FDFEFE"/>
<path d="M80.4749 136.154H76.0039V140.605H80.4749V136.154Z" fill="#7194BF"/>
<path d="M80.4749 146.045H76.0039V150.496H80.4749V146.045Z" fill="#7194BF"/>
<path d="M80.4749 155.936H76.0039V160.386H80.4749V155.936Z" fill="#7194BF"/>
<path d="M80.4749 165.826H76.0039V170.277H80.4749V165.826Z" fill="#7194BF"/>
<path d="M80.4749 175.717H76.0039V180.167H80.4749V175.717Z" fill="#7194BF"/>
<path d="M80.4749 185.605H76.0039V190.056H80.4749V185.605Z" fill="#7194BF"/>
<path d="M80.4749 195.496H76.0039V199.947H80.4749V195.496Z" fill="#7194BF"/>
<path d="M80.4749 205.385H76.0039V209.835H80.4749V205.385Z" fill="#7194BF"/>
<path d="M80.4749 215.275H76.0039V219.726H80.4749V215.275Z" fill="#7194BF"/>
<path d="M80.4749 225.168H76.0039V229.619H80.4749V225.168Z" fill="#7194BF"/>
<path d="M80.4749 235.057H76.0039V239.507H80.4749V235.057Z" fill="#7194BF"/>
<path d="M80.4749 244.945H76.0039V249.396H80.4749V244.945Z" fill="#7194BF"/>
<path d="M80.4749 254.838H76.0039V259.288H80.4749V254.838Z" fill="#7194BF"/>
<path d="M80.4749 264.729H76.0039V269.179H80.4749V264.729Z" fill="#7194BF"/>
<path d="M80.4749 274.615H76.0039V279.066H80.4749V274.615Z" fill="#7194BF"/>
<path d="M80.4749 284.508H76.0039V288.958H80.4749V284.508Z" fill="#7194BF"/>
<path d="M80.4749 294.398H76.0039V298.849H80.4749V294.398Z" fill="#7194BF"/>
<path d="M80.4749 304.287H76.0039V308.738H80.4749V304.287Z" fill="#7194BF"/>
<path d="M173.274 304.289H125.285V308.74H173.274V304.289Z" fill="#FDFEFE"/>
<path d="M313.374 308.637L294.496 300.626V297.363L313.374 289.352V292.813L298.371 298.945L313.374 305.077V308.637Z" fill="#FDFEFE"/>
<path d="M326.689 284.604L318.442 312.988H315.66L323.907 284.604H326.689Z" fill="#FDFEFE"/>
<path d="M347.745 300.625L328.867 308.636V305.175L343.87 299.043L328.867 292.911V289.449L347.745 297.46V300.625Z" fill="#FDFEFE"/>
</g>
</g>
<path d="M365.338 338.704H50.3791C39.4499 338.704 30.5078 329.803 30.5078 318.924H385.209C385.209 329.902 376.267 338.704 365.338 338.704Z" fill="#0094FF"/>
<path d="M382.527 328.816C384.216 325.948 385.209 322.486 385.209 318.926H30.5078C30.5078 322.486 31.5014 325.948 33.1904 328.816H382.527Z" fill="#00D1FF"/>
</g>
<rect y="133.953" width="80.0079" height="80.0079" rx="10.6677" fill="#FDBD56"/>
<g clip-path="url(#clip1_5897_7141)">
<path d="M41.4082 196.187H38.6186C36.3624 196.187 34.5267 194.352 34.5267 192.095V191.152C33.5675 190.845 32.6356 190.458 31.7403 189.995L31.0714 190.664C29.4516 192.286 26.8568 192.238 25.284 190.663L23.3124 188.692C21.7368 187.118 21.6914 184.524 23.3129 182.904L23.9812 182.236C23.5178 181.341 23.1311 180.409 22.8245 179.449H21.8809C19.6247 179.449 17.7891 177.614 17.7891 175.358V172.568C17.7891 170.312 19.6247 168.476 21.881 168.476H22.8246C23.1312 167.517 23.5179 166.585 23.9813 165.69L23.3124 165.021C21.692 163.402 21.7367 160.808 23.313 159.233L25.2848 157.262C26.8612 155.683 29.4554 155.644 31.0721 157.262L31.7404 157.93C32.6357 157.467 33.5676 157.08 34.5268 156.774V155.83C34.5268 153.574 36.3624 151.738 38.6187 151.738H41.4083C43.6645 151.738 45.5001 153.574 45.5001 155.83V156.774C46.4593 157.08 47.3913 157.467 48.2866 157.93L48.9554 157.262C50.5753 155.64 53.1701 155.687 54.7429 157.262L56.7145 159.234C58.2901 160.808 58.3354 163.402 56.714 165.021L56.0457 165.69C56.509 166.585 56.8958 167.517 57.2023 168.476H58.146C60.4022 168.476 62.2379 170.312 62.2379 172.568V175.358C62.2379 177.614 60.4022 179.449 58.146 179.449H57.2023C56.8958 180.409 56.509 181.341 56.0457 182.236L56.7145 182.905C58.335 184.523 58.2903 187.118 56.714 188.692L54.7422 190.664C53.1657 192.242 50.5715 192.282 48.9548 190.663L48.2866 189.995C47.3913 190.458 46.4593 190.845 45.5001 191.152V192.095C45.5001 194.352 43.6645 196.187 41.4082 196.187ZM32.1756 187.26C33.4194 187.996 34.7581 188.551 36.1544 188.912C36.7295 189.06 37.1312 189.579 37.1312 190.173V192.095C37.1312 192.915 37.7986 193.583 38.6187 193.583H41.4083C42.2284 193.583 42.8958 192.915 42.8958 192.095V190.173C42.8958 189.579 43.2976 189.06 43.8726 188.912C45.2689 188.551 46.6076 187.996 47.8514 187.26C48.3632 186.957 49.0147 187.04 49.4352 187.46L50.7971 188.822C51.3843 189.41 52.3273 189.396 52.9001 188.823L54.8731 186.85C55.4445 186.279 55.4636 185.336 54.8736 184.747L53.5111 183.384C53.0907 182.964 53.0084 182.312 53.311 181.801C54.0465 180.557 54.6022 179.218 54.9625 177.822C55.111 177.247 55.6296 176.845 56.2234 176.845H58.1461C58.9662 176.845 59.6336 176.178 59.6336 175.358V172.568C59.6336 171.748 58.9662 171.081 58.1461 171.081H56.2234C55.6295 171.081 55.111 170.679 54.9625 170.104C54.6022 168.707 54.0465 167.369 53.311 166.125C53.0084 165.613 53.0907 164.962 53.5111 164.541L54.8731 163.179C55.4619 162.591 55.4465 161.648 54.8736 161.076L52.9008 159.103C52.3289 158.531 51.3858 158.514 50.7977 159.103L49.4352 160.465C49.0149 160.886 48.3631 160.968 47.8515 160.666C46.6077 159.93 45.269 159.374 43.8727 159.014C43.2977 158.866 42.8959 158.347 42.8959 157.753V155.83C42.8959 155.01 42.2285 154.343 41.4084 154.343H38.6188C37.7987 154.343 37.1313 155.01 37.1313 155.83V157.753C37.1313 158.347 36.7296 158.865 36.1545 159.014C34.7582 159.374 33.4195 159.93 32.1757 160.665C31.6639 160.968 31.0123 160.886 30.592 160.465L29.23 159.103C28.6428 158.515 27.6998 158.529 27.127 159.103L25.154 161.076C24.5826 161.646 24.5635 162.589 25.1535 163.179L26.5161 164.541C26.9364 164.962 27.0187 165.613 26.7162 166.125C25.9806 167.369 25.425 168.707 25.0646 170.104C24.9162 170.679 24.3975 171.08 23.8037 171.08H21.881C21.0608 171.08 20.3935 171.748 20.3935 172.568V175.358C20.3935 176.178 21.0608 176.845 21.881 176.845H23.8036C24.3975 176.845 24.9161 177.247 25.0645 177.822C25.4249 179.218 25.9806 180.557 26.7161 181.8C27.0186 182.312 26.9363 182.964 26.516 183.384L25.1539 184.746C24.5652 185.334 24.5805 186.277 25.1534 186.849L27.1263 188.822C27.6981 189.395 28.6413 189.411 29.2293 188.823L30.5918 187.46C30.9016 187.15 31.546 186.888 32.1756 187.26Z" fill="white"/>
<path d="M40.0148 183.633C34.6821 183.633 30.3438 179.295 30.3438 173.962C30.3438 168.629 34.6821 164.291 40.0148 164.291C45.3476 164.291 49.6859 168.629 49.6859 173.962C49.6859 179.295 45.3476 183.633 40.0148 183.633ZM40.0148 166.895C36.1182 166.895 32.9482 170.066 32.9482 173.962C32.9482 177.859 36.1183 181.029 40.0148 181.029C43.9114 181.029 47.0815 177.859 47.0815 173.962C47.0815 170.066 43.9115 166.895 40.0148 166.895Z" fill="white"/>
</g>
<rect x="8.56641" y="241.523" width="100.487" height="68.4017" rx="10.6677" fill="url(#paint1_linear_5897_7141)" fill-opacity="0.8"/>
<path d="M46.9891 283.28L31.3886 276.398V272.586L46.9891 265.703V269.797L34.5299 275.233V273.786L46.9891 279.186V283.28ZM50.6458 288.292L62.4344 259.173H66.8463L55.0577 288.292H50.6458ZM70.5327 283.28V279.186L82.992 273.786V275.233L70.5327 269.797V265.703L86.1685 272.586V276.398L70.5327 283.28Z" fill="white"/>
<rect opacity="0.8" x="14.8082" y="4.44488" width="71.1181" height="71.1181" rx="6.22284" fill="#2542BA" stroke="url(#paint2_linear_5897_7141)" stroke-width="8.88977"/>
<rect x="30.5391" y="21.6172" width="5.87835" height="3.11229" fill="white"/>
<rect x="30.5391" y="30.0312" width="8.87517" height="3.11229" fill="white"/>
<rect x="25.4648" y="38.4453" width="8.87517" height="3.11229" fill="white"/>
<rect x="29.8438" y="46.8594" width="7.14627" height="3.11229" fill="white"/>
<rect x="29.8438" y="55.2734" width="9.56675" height="3.11229" fill="white"/>
<rect x="38.7188" y="21.6172" width="28.124" height="3.11229" fill="#1E9AFF"/>
<rect x="42.0625" y="30.0312" width="28.7002" height="3.11229" fill="#1E9AFF"/>
<rect x="36.9883" y="38.4453" width="38.267" height="3.11229" fill="#1E9AFF"/>
<rect x="38.7188" y="46.8594" width="28.8155" height="3.11229" fill="#1E9AFF"/>
<rect x="42.0625" y="55.2734" width="28.7002" height="3.11229" fill="#1E9AFF"/>
<rect opacity="0.8" x="113.5" y="61.2769" width="190.334" height="119.162" rx="6.22284" fill="#2542BA" stroke="url(#paint3_linear_5897_7141)" stroke-width="8.88977"/>
<rect x="138.391" y="80.918" width="19.5628" height="3.48385" fill="#FDBD56"/>
<rect x="146.336" y="91.5176" width="19.5628" height="3.48385" fill="white"/>
<rect x="146.336" y="100.986" width="19.5628" height="3.48385" fill="white"/>
<rect x="146.336" y="110.453" width="19.5628" height="3.48385" fill="white"/>
<rect x="146.336" y="119.92" width="19.5628" height="3.48385" fill="white"/>
<rect x="170.469" y="140.08" width="72.2846" height="3.48385" fill="white"/>
<rect x="170.469" y="149.545" width="72.2846" height="3.48385" fill="white"/>
<rect x="158.961" y="149.545" width="6.93981" height="3.48385" fill="#1E9AFF"/>
<rect x="170.469" y="159.012" width="72.2846" height="3.48385" fill="white"/>
<rect x="146.348" y="159.012" width="19.5524" height="3.48385" fill="#1E9AFF"/>
<rect x="246.152" y="140.08" width="33.8189" height="3.48385" fill="white"/>
<rect x="246.152" y="149.545" width="33.8189" height="3.48385" fill="white"/>
<rect x="246.152" y="159.012" width="33.8189" height="3.48385" fill="white"/>
<rect x="138.391" y="129.82" width="19.5628" height="3.48385" fill="#FDBD56"/>
<rect x="162.516" y="80.918" width="39.9489" height="3.48385" fill="#FDBD56"/>
<rect x="170.469" y="91.5176" width="109.507" height="3.48385" fill="#1E9AFF"/>
<rect x="170.469" y="100.986" width="109.507" height="3.48385" fill="#1E9AFF"/>
<rect x="170.469" y="110.453" width="109.507" height="3.48385" fill="#1E9AFF"/>
<rect x="170.469" y="119.92" width="109.507" height="3.48385" fill="#1E9AFF"/>
<rect x="162.516" y="129.82" width="39.9489" height="3.48385" fill="#FDBD56"/>
<rect x="337.32" y="93.2598" width="106.677" height="106.677" rx="10.6677" fill="url(#paint4_linear_5897_7141)" fill-opacity="0.8"/>
<path d="M349.016 141.222H431.928C431.928 133.732 423.045 124.152 411.2 127.81C405.278 114.397 396.568 112.133 389.775 112.133C382.982 112.133 375.666 114.746 368.176 127.81C355.077 124.465 349.945 135.358 349.016 141.222Z" fill="white"/>
<path d="M395.125 147.669L395.125 166.385L405.366 166.385L390.219 181.532L375.072 166.385L385.313 166.385L385.312 147.668L395.125 147.669Z" fill="white"/>
<rect x="352.734" y="241.968" width="90.8178" height="154.546" rx="10.2232" fill="url(#paint5_linear_5897_7141)" fill-opacity="0.8" stroke="black" stroke-width="0.888977"/>
<g opacity="0.8">
<mask id="path-100-inside-1_5897_7141" fill="white">
<rect x="362.586" y="283.682" width="71.1181" height="71.1181" rx="10.6677"/>
</mask>
<rect x="362.586" y="283.682" width="71.1181" height="71.1181" rx="10.6677" stroke="#203FC0" stroke-width="71.1181" mask="url(#path-100-inside-1_5897_7141)"/>
</g>
<path d="M389.504 318.719L395.611 324.826L406.782 313.654" stroke="white" stroke-width="4.44488"/>
<circle cx="398.141" cy="319.24" r="22.801" stroke="white" stroke-width="4.44488"/>
<circle cx="398.143" cy="246.678" r="1.99445" fill="#243B9B"/>
<circle cx="398.143" cy="246.678" r="1.99445" fill="#243B9B"/>
<circle cx="398.143" cy="246.678" r="1.99445" fill="#243B9B"/>
<circle cx="398.143" cy="246.678" r="1.99445" fill="#243B9B"/>
<circle cx="398.142" cy="246.679" r="0.543999" fill="#243B9B"/>
<circle cx="398.142" cy="246.679" r="0.543999" fill="#05E5FF"/>
<g style="mix-blend-mode:overlay">
<circle cx="398.143" cy="246.678" r="1.14725" fill="url(#paint6_linear_5897_7141)" fill-opacity="0.8"/>
</g>
<defs>
<linearGradient id="paint0_linear_5897_7141" x1="214.103" y1="133.953" x2="214.103" y2="312.991" gradientUnits="userSpaceOnUse">
<stop offset="0.267122" stop-opacity="0"/>
<stop offset="0.978184" stop-color="white"/>
</linearGradient>
<linearGradient id="paint1_linear_5897_7141" x1="11.0345" y1="244.344" x2="105.88" y2="307.457" gradientUnits="userSpaceOnUse">
<stop stop-color="#00D1FF"/>
<stop offset="1" stop-color="#00FFF0"/>
</linearGradient>
<linearGradient id="paint2_linear_5897_7141" x1="14.8343" y1="2.19742" x2="86.7452" y2="78.4666" gradientUnits="userSpaceOnUse">
<stop stop-color="#00D1FF"/>
<stop offset="1" stop-color="#00FFF0"/>
</linearGradient>
<linearGradient id="paint3_linear_5897_7141" x1="120.188" y1="60.349" x2="222.392" y2="228.995" gradientUnits="userSpaceOnUse">
<stop stop-color="#00D1FF"/>
<stop offset="1" stop-color="#00FFF0"/>
</linearGradient>
<linearGradient id="paint4_linear_5897_7141" x1="339.94" y1="97.6591" x2="460.481" y2="152.259" gradientUnits="userSpaceOnUse">
<stop stop-color="#00D1FF"/>
<stop offset="1" stop-color="#00FFF0"/>
</linearGradient>
<linearGradient id="paint5_linear_5897_7141" x1="354.541" y1="247.934" x2="471.102" y2="279.084" gradientUnits="userSpaceOnUse">
<stop stop-color="#00D1FF"/>
<stop offset="1" stop-color="#00FFF0"/>
</linearGradient>
<linearGradient id="paint6_linear_5897_7141" x1="397.052" y1="245.626" x2="399.645" y2="246.8" gradientUnits="userSpaceOnUse">
<stop stop-color="#00FFFF"/>
<stop offset="1" stop-color="#00C2FF"/>
</linearGradient>
<clipPath id="clip0_5897_7141">
<rect width="354.702" height="231.134" fill="white" transform="translate(30.5039 107.572)"/>
</clipPath>
<clipPath id="clip1_5897_7141">
<rect x="17.7773" y="151.734" width="44.4488" height="44.4488" rx="10.6677" fill="white"/>
</clipPath>
</defs>
</svg>
